
const Logo =

<?xml version="1.0" encoding="utf-8"?>
<!-- Generator: Adobe Illustrator 27.0.0, SVG Export Plug-In . SVG Version: 6.00 Build 0)  -->
<svg version="1.1" id="Layer_1" xmlns="http://www.w3.org/2000/svg" xmlns:xlink="http://www.w3.org/1999/xlink" x="0px" y="0px"
	 viewBox="0 0 278.7 242.3" style="enable-background:new 0 0 278.7 242.3;" xml:space="preserve">
<style type="text/css">
	.st0{fill:#FFFFFF;}
	.st1{fill:#6B1E7D;}
	.st2{fill:#FCFBFC;}
</style>
<g>
	<path class="st0" d="M62.9,193.6c-18.3,12-38.4,19.1-60.1,21.8c-0.2-1-0.6-1.7-0.4-2c13-20.6,14-42.9,9.6-65.9
		c-0.9-4.7-2-9.4-3.6-13.9c-10.2-29.1-5.4-56.3,11.8-81.2c18-25.9,43.6-40.9,74-47.5c41-8.9,79.4-2.2,113.4,23.1
		c21.4,15.9,35.6,37,39.7,64c3.8,24.9-2.9,47-17.4,66.9c-17.8,24.4-42.5,38.4-71.4,45.3C125.5,212,93.7,208.1,62.9,193.6z
		 M124.5,170c19.5,0,39,0.2,58.5-0.1c15.5-0.2,25.8-9.9,26-25c0.4-26.7,0.3-53.4-0.1-80.1c-0.2-12.5-9.2-22-21.5-23.9
		c-2.7-0.4-5.4-0.4-8.1-0.4c-36.6,0-73.3,0-109.9,0c-2.7,0-5.4,0-8.1,0.4C48.2,43.1,39.9,53,39.8,66.6c-0.1,25.8,0,51.6,0,77.5
		c0,2.4,0.2,4.8,0.8,7.1c3.1,11.6,12.4,18.7,25.3,18.9C85.5,170.2,105,170,124.5,170z"/>
	<path class="st0" d="M258.8,121.1c7.9,10.1,12.2,21.3,13.4,33.7c1,10-0.6,19.7-3.8,29.2c-4,12.2-5.2,24.8-1.3,37.1
		c2,6.4,5.8,12.3,9.4,19.4c-2.9,0.2-5.4,0.7-7.8,0.4c-12.3-1.4-24.2-4.6-34.9-10.9c-5-2.9-9.1-2.5-14.3-0.6
		c-30.3,11.1-59.4,8.2-87.3-7.9c-0.5-0.3-1-0.7-1.4-1.1c-0.2-0.2-0.2-0.6-0.3-1.1C193.2,213.1,240.2,186.3,258.8,121.1z"/>
	<path class="st0" d="M125.1,50.7c18.6,0,37.2-0.1,55.9,0c13,0.1,17.8,5,17.9,18c0,24.3-0.4,48.7,0.2,73c0.3,11.6-5.9,18.2-18,18.1
		c-37.8-0.2-75.7,0-113.5-0.1c-12.6-0.1-17.4-5.1-17.4-17.6c0-24.6,0-49.3,0-73.9c0-12.4,4.9-17.5,17.4-17.5
		C86.7,50.7,105.9,50.7,125.1,50.7z M104.4,105c0,7.8-0.2,15.6,0.1,23.3c0.3,6.7,3.6,8.5,9.4,5.1c5.5-3.1,10.7-6.6,16-10
		c7.1-4.4,14.3-8.7,21.2-13.4c4.5-3,4.5-5.8,0.5-9.3c-1.1-1-2.4-1.8-3.7-2.6c-10.9-6.8-21.8-13.7-32.7-20.4
		c-7.3-4.4-10.6-2.8-10.8,5.6C104.2,90.7,104.4,97.8,104.4,105z"/>
	<path class="st0" d="M115.2,120.5c0-11,0-20.1,0-30.4c8.3,5.2,15.8,9.8,24.4,15.1C131.2,110.5,123.8,115.1,115.2,120.5z"/>
</g>
</svg>
